#N canvas 978 204 1014 775 12;
#X obj 58 256 r addObject;
#X obj 566 290 r updateObject;
#X obj 313 103 r deleteAll;
#X obj 375 321 r removeObject;
#X msg 229 290 \$1 1;
#X obj 58 411 list prepend;
#X obj 58 287 list split 1;
#X obj 58 380 list append;
#X msg 58 349 list add;
#X msg 293 256 clear;
#X msg 293 287 \$1 0;
#X obj 313 72 table routing 100;
#X obj 168 426 tabwrite routing;
#X obj 58 318 t b f f;
#X obj 528 386 tabread routing;
#X obj 566 321 list split 1;
#X obj 567 462 list append;
#X obj 587 510 list prepend;
#X obj 528 417 t b f;
#X msg 528 448 list update;
#X msg 347 256 \; routing const 0;
#X msg 344 417 \$1 remove;
#X obj 373 405 tabread routing;
#X obj 344 386 t f f f;
#X obj 167 510 spigot 1;
#X obj 354 731 dac~;
#X obj 633 72 r _receiver;
#X obj 492 72 r _done;
#X obj 552 72 r _data;
#X obj 552 103 list prepend;
#X obj 553 168 t l l;
#X obj 528 168 list;
#X obj 633 103 t b s;
#X obj 647 225 s;
#X obj 492 168 t b;
#X msg 327 510 all remove;
#X obj 342 168 bng 20 250 50 0 deleteAll empty deleteAll 0 -10 0 12 #fcfcfc #000000 #000000;
#X obj 763 225 metro 600;
#X obj 763 256 s synchro;
#X obj 849 120 loadbang;
#N canvas 151 622 450 300 delay 0;
#X obj 184 25 inlet~;
#X obj 27 188 outlet~;
#X obj 354 190 outlet~;
#X obj 255 83 *~ 0.05;
#X obj 56 79 *~ 0.051;
#X obj 356 24 delread~ line1 2700;
#X obj 33 29 delread~ line2 2400;
#X obj 168 84 *~ 0.3;
#X obj 56 138 delwrite~ line1 2700;
#X obj 230 134 delwrite~ line2 2700;
#X connect 0 0 7 0;
#X connect 3 0 9 0;
#X connect 4 0 8 0;
#X connect 5 0 3 0;
#X connect 5 0 2 0;
#X connect 6 0 4 0;
#X connect 6 0 1 0;
#X connect 7 0 8 0;
#X connect 7 0 9 0;
#X restore 367 677 pd delay;
#X floatatom 514 347 5 0 0 0 - - - 0;
#X floatatom 670 420 5 0 0 0 - - - 0;
#X obj 328 632 *~ 1;
#X obj 408 632 *~ 1;
#X obj 308 576 clone -s 1 Libs/soundspot 20;
#X obj 229 355 poly 20 1;
#X connect 0 0 6 0;
#X connect 1 0 15 0;
#X connect 2 0 9 0;
#X connect 2 0 20 0;
#X connect 2 0 35 0;
#X connect 3 0 23 0;
#X connect 4 0 46 0;
#X connect 5 0 24 0;
#X connect 6 0 13 0;
#X connect 6 1 7 1;
#X connect 7 0 5 0;
#X connect 8 0 7 0;
#X connect 9 0 46 0;
#X connect 10 0 46 0;
#X connect 13 0 8 0;
#X connect 13 1 4 0;
#X connect 13 2 12 1;
#X connect 14 0 18 0;
#X connect 14 0 42 0;
#X connect 15 0 14 0;
#X connect 15 0 41 0;
#X connect 15 1 16 1;
#X connect 16 0 17 0;
#X connect 17 0 24 0;
#X connect 18 0 19 0;
#X connect 18 1 17 1;
#X connect 19 0 16 0;
#X connect 21 0 24 0;
#X connect 22 0 21 0;
#X connect 23 0 10 0;
#X connect 23 1 12 1;
#X connect 23 2 22 0;
#X connect 24 0 45 0;
#X connect 26 0 32 0;
#X connect 27 0 34 0;
#X connect 28 0 29 0;
#X connect 29 0 30 0;
#X connect 30 0 31 1;
#X connect 30 1 29 1;
#X connect 31 0 33 0;
#X connect 32 0 29 1;
#X connect 32 1 33 1;
#X connect 34 0 31 0;
#X connect 35 0 45 0;
#X connect 37 0 38 0;
#X connect 39 0 37 0;
#X connect 40 0 25 0;
#X connect 40 1 25 1;
#X connect 43 0 25 0;
#X connect 43 0 40 0;
#X connect 44 0 25 1;
#X connect 44 0 40 0;
#X connect 45 0 43 0;
#X connect 45 1 44 0;
#X connect 46 0 5 1;
#X connect 46 0 12 0;
