#N canvas 287 508 715 368 12;
#X obj 100 29 netreceive -u -b 12000;
#X obj 100 54 oscparse;
#X obj 100 79 list split 1;
#X obj 84 137 list append;
#X obj 91 209 s;
#X obj 100 104 t b s;
#X obj 172 166 list trim;
#X obj 178 192 spigot;
#X obj 221 107 tgl 20 0 empty empty debug 0 -10 0 12 #fcfcfc #000000 #000000 0 1;
#X obj 430 50 loadbang;
#X msg 437 90 vis 1;
#X obj 437 115 s pd-main.pd;
#X text 548 153 <- your main patch;
#X obj 177 221 print debug;
#X obj 434 149 main;
#X connect 0 0 1 0;
#X connect 1 0 2 0;
#X connect 1 0 6 0;
#X connect 2 0 5 0;
#X connect 2 1 3 1;
#X connect 3 0 4 0;
#X connect 5 0 3 0;
#X connect 5 1 4 1;
#X connect 6 0 7 0;
#X connect 7 0 13 0;
#X connect 8 0 7 1;
#X connect 9 0 10 0;
#X connect 10 0 11 0;
