#N canvas 1365 388 450 300 12;
#X obj 100 29 netreceive -u -b 12000;
#X obj 100 54 oscparse;
#X obj 100 79 list split 1;
#X obj 84 137 list append;
#X obj 91 209 s;
#X obj 100 104 t b s;
#X obj 215 146 r addObject;
#X obj 215 171 print addObject;
#X obj 225 206 r updateObject;
#X obj 225 231 print updateObject;
#X obj 295 72 r deleteAll;
#X obj 305 102 print deleteAll;
#X obj 27 242 r removeObject;
#X obj 27 267 print removeObject;
#X connect 0 0 1 0;
#X connect 1 0 2 0;
#X connect 2 0 5 0;
#X connect 2 1 3 1;
#X connect 3 0 4 0;
#X connect 5 0 3 0;
#X connect 5 1 4 1;
#X connect 6 0 7 0;
#X connect 8 0 9 0;
#X connect 10 0 11 0;
#X connect 12 0 13 0;
