#N canvas 460 309 1191 641 12;
#X obj 57 10 inlet;
#X obj 433 273 switch~;
#X msg 248 154 1;
#X obj 211 602 outlet~;
#X obj 57 35 route add update remove;
#X msg 318 139 0;
#X obj 76 215 > 0;
#X obj 113 214 < 1;
#X obj 76 240 &&;
#X obj 195 238 > 0;
#X obj 232 237 < 1;
#X obj 195 263 &&;
#X obj 174 292 &&;
#X obj 411 191 t b f;
#X obj 411 216 *;
#X obj 121 349 dist_att cursor;
#X obj 218 510 *~;
#X obj 121 374 lop~ 10;
#X obj 631 203 soundfiler;
#X obj 538 28 table \$0-wav;
#X msg 398 78 symbol \$4;
#X obj 398 103 pack s \$0;
#X obj 347 395 spigot 1;
#X obj 296 325 r synchro;
#X obj 289 352 spigot;
#X msg 448 401 0;
#X msg 435 354 1;
#X obj 173 210 t f f f;
#X msg 398 129 read -resize ../Audios/\$1.wav \$2-wav;
#X msg 695 230 \$1;
#X obj 631 455 phasor~;
#X obj 484 538 tabread4~ \$0-wav;
#X obj 613 313 /;
#X obj 619 269 swap;
#X text 529 339 \$0-loop_freq(hz);
#X obj 630 235 t f f;
#X obj 631 480 *~;
#X obj 501 388 swap 1000;
#X obj 424 471 delay;
#X msg 674 413 0;
#X obj 500 418 /;
#X obj 346 428 t b b b;
#X obj 499 448 - 100;
#X obj 54 187 t f f f f;
#X obj 309 600 outlet~;
#N canvas 0 32 1920 994 pan~ 0;
#X obj 211 602 outlet~;
#X obj 311 154 r cursor;
#X obj 311 179 unpack f f;
#X obj 278 254 -;
#N canvas 2 87 450 300 norm 0;
#X obj 33 54 inlet t;
#X obj 126 55 inlet min;
#X obj 210 54 inlet max;
#X obj 97 370 outlet;
#X obj 97 331 /;
#X obj 283 123 loadbang;
#X obj 283 145 t b b;
#X obj 225 272 -;
#X obj 126 116 t b b f;
#X obj 200 119 t b f;
#X obj 98 223 -;
#X obj 195 226 f;
#X obj 269 225 f;
#X connect 0 0 10 0;
#X connect 1 0 8 0;
#X connect 2 0 9 0;
#X connect 4 0 3 0;
#X connect 5 0 6 0;
#X connect 6 0 11 0;
#X connect 6 1 12 0;
#X connect 7 0 4 1;
#X connect 8 0 10 0;
#X connect 8 1 11 0;
#X connect 8 2 10 1;
#X connect 8 2 12 0;
#X connect 9 0 10 0;
#X connect 9 1 11 0;
#X connect 10 0 4 0;
#X connect 11 0 7 0;
#X connect 12 0 7 1;
#X restore 202 420 pd norm;
#X obj 381 263 unpack f f;
#N canvas 2 87 450 300 norm 0;
#X obj 33 54 inlet t;
#X obj 126 55 inlet min;
#X obj 210 54 inlet max;
#X obj 97 370 outlet;
#X obj 97 331 /;
#X obj 283 123 loadbang;
#X obj 283 145 t b b;
#X obj 225 272 -;
#X obj 126 116 t b b f;
#X obj 200 119 t b f;
#X obj 98 223 -;
#X obj 195 226 f;
#X obj 269 225 f;
#X connect 0 0 10 0;
#X connect 1 0 8 0;
#X connect 2 0 9 0;
#X connect 4 0 3 0;
#X connect 5 0 6 0;
#X connect 6 0 11 0;
#X connect 6 1 12 0;
#X connect 7 0 4 1;
#X connect 8 0 10 0;
#X connect 8 1 11 0;
#X connect 8 2 10 1;
#X connect 8 2 12 0;
#X connect 9 0 10 0;
#X connect 9 1 11 0;
#X connect 10 0 4 0;
#X connect 11 0 7 0;
#X connect 12 0 7 1;
#X restore 336 417 pd norm;
#X obj 441 354 unpack f f;
#X obj 438 154 loadbang;
#X obj 202 445 lop~ 10;
#X obj 336 442 lop~ 10;
#X obj 309 600 outlet~;
#X obj 139 155 inlet~;
#X obj 277 77 inlet;
#X obj 158 490 *~;
#X obj 250 492 *~;
#X obj 295 218 t b f;
#X obj 230 320 clip -1 1;
#X msg 381 238 1 -1;
#X msg 441 329 -1 1;
#X obj 254 287 * 4;
#X connect 1 0 2 0;
#X connect 2 0 16 0;
#X connect 3 0 20 0;
#X connect 4 0 9 0;
#X connect 5 0 4 1;
#X connect 5 1 4 2;
#X connect 6 0 10 0;
#X connect 7 0 6 1;
#X connect 7 1 6 2;
#X connect 8 0 18 0;
#X connect 8 0 19 0;
#X connect 9 0 14 1;
#X connect 10 0 15 1;
#X connect 12 0 14 0;
#X connect 12 0 15 0;
#X connect 13 0 3 0;
#X connect 14 0 0 0;
#X connect 15 0 11 0;
#X connect 16 0 3 0;
#X connect 16 1 3 1;
#X connect 17 0 4 0;
#X connect 17 0 6 0;
#X connect 18 0 5 0;
#X connect 19 0 7 0;
#X connect 20 0 17 0;
#X restore 255 536 pd pan~;
#X obj 356 590 *~;
#X obj 378 539 line~;
#X msg 341 470 1 20;
#X obj 422 505 delay;
#X obj 481 484 - 20;
#X msg 422 530 0 20;
#X obj 56 148 unpack f f f;
#X obj 57 70 t a a a;
#X connect 0 0 4 0;
#X connect 2 0 13 0;
#X connect 4 0 53 0;
#X connect 4 1 52 0;
#X connect 4 2 5 0;
#X connect 5 0 13 0;
#X connect 6 0 8 0;
#X connect 7 0 8 1;
#X connect 8 0 12 0;
#X connect 9 0 11 0;
#X connect 10 0 11 1;
#X connect 11 0 12 1;
#X connect 12 0 14 0;
#X connect 13 0 14 0;
#X connect 13 1 14 1;
#X connect 14 0 1 0;
#X connect 14 0 24 1;
#X connect 15 0 17 0;
#X connect 16 0 45 0;
#X connect 17 0 16 0;
#X connect 18 0 35 0;
#X connect 18 1 29 0;
#X connect 20 0 21 0;
#X connect 21 0 28 0;
#X connect 22 0 41 0;
#X connect 23 0 24 0;
#X connect 24 0 22 0;
#X connect 25 0 22 1;
#X connect 26 0 22 1;
#X connect 27 0 9 0;
#X connect 27 1 10 0;
#X connect 27 2 15 1;
#X connect 28 0 18 0;
#X connect 29 0 33 1;
#X connect 30 0 36 0;
#X connect 31 0 46 0;
#X connect 32 0 30 0;
#X connect 32 0 37 0;
#X connect 33 0 32 0;
#X connect 33 1 32 1;
#X connect 35 0 33 0;
#X connect 35 1 36 1;
#X connect 36 0 31 0;
#X connect 37 0 40 0;
#X connect 37 1 40 1;
#X connect 38 0 26 0;
#X connect 39 0 30 1;
#X connect 40 0 42 0;
#X connect 40 0 50 0;
#X connect 41 0 39 0;
#X connect 41 0 48 0;
#X connect 41 1 38 0;
#X connect 41 1 49 0;
#X connect 41 2 25 0;
#X connect 42 0 38 1;
#X connect 43 0 6 0;
#X connect 43 1 7 0;
#X connect 43 2 15 0;
#X connect 43 3 45 1;
#X connect 45 0 3 0;
#X connect 45 1 44 0;
#X connect 46 0 16 1;
#X connect 47 0 46 1;
#X connect 48 0 47 0;
#X connect 49 0 51 0;
#X connect 50 0 49 1;
#X connect 51 0 47 0;
#X connect 52 0 43 0;
#X connect 52 1 27 0;
#X connect 52 2 15 2;
#X connect 53 0 52 0;
#X connect 53 1 2 0;
#X connect 53 2 20 0;
