#N canvas 376 314 1191 641 12;
#X obj 57 10 inlet;
#X obj 433 273 switch~;
#X msg 248 154 1;
#X obj 56 148 unpack f f;
#X obj 219 537 outlet~;
#X obj 57 35 route add update remove;
#X msg 318 139 0;
#X obj 76 215 > 0;
#X obj 113 214 < 1;
#X obj 76 240 &&;
#X obj 195 238 > 0;
#X obj 232 237 < 1;
#X obj 195 263 &&;
#X obj 174 292 &&;
#X obj 411 191 t b f;
#X obj 411 216 *;
#X obj 121 349 dist_att cursor;
#X obj 218 510 *~;
#X obj 121 374 lop~ 10;
#X obj 631 203 soundfiler;
#X obj 538 28 table \$0-wav;
#X msg 398 78 symbol \$4;
#X obj 398 103 pack s \$0;
#X obj 347 395 spigot 1;
#X obj 296 325 r synchro;
#X obj 289 352 spigot;
#X msg 448 401 0;
#X msg 435 354 1;
#X obj 54 187 t f f f;
#X obj 173 210 t f f f;
#X msg 398 129 read -resize ../Audios/\$1.wav \$2-wav;
#X msg 695 230 \$1;
#X obj 631 455 phasor~;
#X obj 484 538 tabread4~ \$0-wav;
#X obj 613 313 /;
#X obj 619 269 swap;
#X text 529 339 \$0-loop_freq(hz);
#X obj 630 235 t f f;
#X obj 631 480 *~;
#X obj 501 388 swap 1000;
#X obj 499 448 - 20;
#X obj 424 471 delay;
#X msg 674 413 0;
#X obj 500 418 /;
#X obj 346 428 t b b b;
#X connect 0 0 5 0;
#X connect 2 0 14 0;
#X connect 3 0 28 0;
#X connect 3 1 29 0;
#X connect 5 0 2 0;
#X connect 5 0 21 0;
#X connect 5 0 3 0;
#X connect 5 1 3 0;
#X connect 5 2 6 0;
#X connect 6 0 14 0;
#X connect 7 0 9 0;
#X connect 8 0 9 1;
#X connect 9 0 13 0;
#X connect 10 0 12 0;
#X connect 11 0 12 1;
#X connect 12 0 13 1;
#X connect 13 0 15 0;
#X connect 14 0 15 0;
#X connect 14 1 15 1;
#X connect 15 0 1 0;
#X connect 15 0 25 1;
#X connect 16 0 18 0;
#X connect 17 0 4 0;
#X connect 18 0 17 0;
#X connect 19 0 37 0;
#X connect 19 1 31 0;
#X connect 21 0 22 0;
#X connect 22 0 30 0;
#X connect 23 0 44 0;
#X connect 24 0 25 0;
#X connect 25 0 23 0;
#X connect 26 0 23 1;
#X connect 27 0 23 1;
#X connect 28 0 7 0;
#X connect 28 1 8 0;
#X connect 28 2 16 0;
#X connect 29 0 10 0;
#X connect 29 1 11 0;
#X connect 29 2 16 1;
#X connect 30 0 19 0;
#X connect 31 0 35 1;
#X connect 32 0 38 0;
#X connect 33 0 17 1;
#X connect 34 0 32 0;
#X connect 34 0 39 0;
#X connect 35 0 34 0;
#X connect 35 1 34 1;
#X connect 37 0 35 0;
#X connect 37 1 38 1;
#X connect 38 0 33 0;
#X connect 39 0 43 0;
#X connect 39 1 43 1;
#X connect 40 0 41 1;
#X connect 41 0 27 0;
#X connect 42 0 32 1;
#X connect 43 0 40 0;
#X connect 44 0 42 0;
#X connect 44 1 41 0;
#X connect 44 2 26 0;
