#N canvas 259 495 697 501 12;
#X obj 57 10 inlet;
#X obj 433 273 switch~;
#X msg 248 154 1;
#X obj 56 148 unpack f f;
#X obj 56 378 osc~;
#X obj 59 467 outlet~;
#X obj 58 413 *~;
#X obj 134 315 osc~;
#X obj 134 340 +~ 1;
#X obj 134 365 *~ 0.2;
#X obj 57 35 route add update remove;
#X msg 318 139 0;
#X obj 90 292 * 20;
#X obj 56 323 * 800;
#X obj 56 351 + 50;
#X obj 76 215 > 0;
#X obj 113 214 < 1;
#X obj 76 240 &&;
#X obj 195 238 > 0;
#X obj 232 237 < 1;
#X obj 195 263 &&;
#X obj 174 292 &&;
#X obj 411 191 t b f;
#X obj 411 216 *;
#X obj 263 356 dist_att cursor;
#X obj 54 187 t f f f f;
#X obj 173 210 t f f f f;
#X obj 58 440 *~;
#X obj 263 381 lop~ 10;
#X connect 0 0 10 0;
#X connect 2 0 22 0;
#X connect 3 0 25 0;
#X connect 3 1 26 0;
#X connect 4 0 6 0;
#X connect 6 0 27 0;
#X connect 7 0 8 0;
#X connect 8 0 9 0;
#X connect 9 0 6 1;
#X connect 10 0 2 0;
#X connect 10 0 3 0;
#X connect 10 1 3 0;
#X connect 10 2 11 0;
#X connect 11 0 22 0;
#X connect 12 0 7 0;
#X connect 13 0 14 0;
#X connect 14 0 4 0;
#X connect 15 0 17 0;
#X connect 16 0 17 1;
#X connect 17 0 21 0;
#X connect 18 0 20 0;
#X connect 19 0 20 1;
#X connect 20 0 21 1;
#X connect 21 0 23 0;
#X connect 22 0 23 0;
#X connect 22 1 23 1;
#X connect 23 0 1 0;
#X connect 24 0 28 0;
#X connect 25 0 13 0;
#X connect 25 1 15 0;
#X connect 25 2 16 0;
#X connect 25 3 24 0;
#X connect 26 0 12 0;
#X connect 26 1 18 0;
#X connect 26 2 19 0;
#X connect 26 3 24 1;
#X connect 27 0 5 0;
#X connect 28 0 27 1;
