#N canvas 345 724 450 300 12;
#X obj 78 60 inlet;
#X obj 323 188 switch~;
#X msg 248 154 1;
#X obj 56 148 unpack f f;
#X obj 56 198 osc~;
#X obj 61 267 outlet~;
#X obj 58 233 *~;
#X obj 159 198 osc~;
#X obj 159 223 +~ 1;
#X obj 159 248 *~ 0.2;
#X obj 78 85 route add update remove;
#X msg 318 139 0;
#X obj 56 173 * 2;
#X obj 115 175 / 20;
#X connect 0 0 10 0;
#X connect 2 0 1 0;
#X connect 3 0 12 0;
#X connect 3 1 13 0;
#X connect 4 0 6 0;
#X connect 6 0 5 0;
#X connect 7 0 8 0;
#X connect 8 0 9 0;
#X connect 9 0 6 1;
#X connect 10 0 2 0;
#X connect 10 0 3 0;
#X connect 10 1 3 0;
#X connect 10 2 11 0;
#X connect 11 0 1 0;
#X connect 12 0 4 0;
#X connect 13 0 7 0;
