#N canvas 1468 87 450 578 12;
#X obj 130 72 inlet;
#X obj 239 48 r \$1;
#X obj 214 74 unpack f f;
#X obj 63 161 - 1e+30;
#X obj 133 164 - 1e+30;
#X obj 63 186 t f f;
#X obj 133 189 t f f;
#X obj 63 211 *;
#X obj 133 214 *;
#X obj 63 236 +;
#X obj 63 399 outlet;
#X obj 59 75 inlet;
#X obj 63 286 + 100;
#X obj 63 311 dbtorms;
#X obj 63 261 * -400;
#X obj 140 107 t b f b;
#X connect 0 0 4 0;
#X connect 1 0 2 0;
#X connect 2 0 15 0;
#X connect 2 1 4 1;
#X connect 3 0 5 0;
#X connect 4 0 6 0;
#X connect 5 0 7 0;
#X connect 5 1 7 1;
#X connect 6 0 8 0;
#X connect 6 1 8 1;
#X connect 7 0 9 0;
#X connect 8 0 9 1;
#X connect 9 0 14 0;
#X connect 11 0 3 0;
#X connect 12 0 13 0;
#X connect 13 0 10 0;
#X connect 14 0 12 0;
#X connect 15 0 3 0;
#X connect 15 1 3 1;
#X connect 15 2 4 0;
