#N canvas 614 174 1014 775 12;
#X obj 58 256 r addObject;
#X obj 566 288 r updateObject;
#X obj 293 219 r deleteAll;
#X obj 375 314 r removeObject;
#X obj 738 243 r cursor;
#X msg 229 301 \$1 1;
#X obj 45 426 list prepend;
#X obj 48 290 list split 1;
#X obj 45 386 list append;
#X msg 49 355 list add;
#X msg 293 244 clear;
#X msg 287 307 \$1 0;
#X obj 313 72 table routing 100;
#X obj 168 422 tabwrite routing;
#X obj 50 321 t b f f;
#X obj 528 382 tabread routing;
#X obj 566 313 list split 1;
#X obj 567 462 list append;
#X obj 587 494 list prepend;
#X obj 535 406 t b f;
#X msg 535 431 list update;
#X msg 347 242 \; routing const 0;
#X obj 231 371 pack f f f;
#X msg 332 435 \$1 remove;
#X obj 373 405 tabread routing;
#X obj 344 370 t f f f;
#X obj 167 510 spigot 1;
#X obj 229 670 *~ 0.1;
#X obj 233 695 dac~;
#X obj 678 85 r _receiver;
#X obj 457 137 r _done;
#X obj 540 81 r _data;
#X obj 551 131 list prepend;
#X obj 546 163 t l l;
#X obj 523 208 list;
#X obj 678 110 t b s;
#X obj 661 212 s;
#X obj 490 173 t b;
#X obj 151 111 osc~ 600;
#X obj 151 136 *~;
#X obj 249 130 line~;
#X obj 151 161 dac~;
#X msg 344 116 0.2 \, 0 300;
#X obj 167 535 route 1 2 3 4;
#X obj 229 339 poly 4 1;
#X obj 139 642 soundspot;
#X obj 223 639 soundspot;
#X obj 313 642 soundspot;
#X obj 397 639 soundspot;
#X msg 332 562 remove;
#X connect 0 0 7 0;
#X connect 1 0 16 0;
#X connect 2 0 10 0;
#X connect 2 0 21 0;
#X connect 2 0 49 0;
#X connect 3 0 25 0;
#X connect 5 0 44 0;
#X connect 6 0 26 0;
#X connect 7 0 14 0;
#X connect 7 1 8 1;
#X connect 8 0 6 0;
#X connect 9 0 8 0;
#X connect 10 0 44 0;
#X connect 11 0 44 0;
#X connect 14 0 9 0;
#X connect 14 1 5 0;
#X connect 14 2 13 1;
#X connect 15 0 19 0;
#X connect 16 0 15 0;
#X connect 16 1 17 1;
#X connect 17 0 18 0;
#X connect 18 0 26 0;
#X connect 19 0 20 0;
#X connect 19 1 18 1;
#X connect 20 0 17 0;
#X connect 23 0 26 0;
#X connect 24 0 23 0;
#X connect 25 0 11 0;
#X connect 25 1 13 1;
#X connect 25 2 24 0;
#X connect 26 0 43 0;
#X connect 27 0 28 0;
#X connect 27 0 28 1;
#X connect 29 0 35 0;
#X connect 30 0 37 0;
#X connect 31 0 32 0;
#X connect 32 0 33 0;
#X connect 33 0 34 1;
#X connect 33 1 32 1;
#X connect 34 0 36 0;
#X connect 35 0 32 1;
#X connect 35 1 36 1;
#X connect 37 0 34 0;
#X connect 37 0 42 0;
#X connect 38 0 39 0;
#X connect 39 0 41 0;
#X connect 39 0 41 1;
#X connect 40 0 39 1;
#X connect 42 0 40 0;
#X connect 43 0 45 0;
#X connect 43 1 46 0;
#X connect 43 2 47 0;
#X connect 43 3 48 0;
#X connect 44 0 6 1;
#X connect 44 0 13 0;
#X connect 44 0 22 0;
#X connect 44 1 22 1;
#X connect 44 2 22 2;
#X connect 45 0 27 0;
#X connect 46 0 27 0;
#X connect 47 0 27 0;
#X connect 48 0 27 0;
#X connect 49 0 45 0;
#X connect 49 0 48 0;
#X connect 49 0 47 0;
#X connect 49 0 46 0;
