#N canvas 797 342 869 608 12;
#X obj 58 256 r addObject;
#X obj 566 288 r updateObject;
#X obj 293 219 r deleteAll;
#X obj 375 314 r removeObject;
#X obj 625 108 r cursor;
#X msg 229 301 \$1 1;
#X obj 45 426 list prepend;
#X obj 48 290 list split 1;
#X obj 45 386 list append;
#X msg 49 355 list add;
#X msg 293 244 clear;
#X msg 287 307 \$1 0;
#X obj 313 72 table routing 100;
#X obj 168 422 tabwrite routing;
#X obj 50 321 t b f f;
#X obj 528 382 tabread routing;
#X obj 566 313 list split 1;
#X obj 567 462 list append;
#X obj 587 494 list prepend;
#X obj 535 406 t b f;
#X msg 535 431 list update;
#X msg 347 242 \; routing const 0;
#X obj 231 371 pack f f f;
#X msg 332 435 \$1 remove;
#X obj 373 405 tabread routing;
#X obj 344 370 t f f f;
#X msg 283 484 all remove;
#X obj 167 510 spigot 1;
#X obj 229 339 poly 8 1;
#X obj 167 535 clone -s 1 soundspot 8;
#X obj 169 562 *~ 0.1;
#X obj 173 587 dac~;
#X obj 145 84 osc~ 500;
#X obj 145 109 *~ 0.1;
#X obj 145 134 dac~;
#X connect 0 0 7 0;
#X connect 1 0 16 0;
#X connect 2 0 10 0;
#X connect 2 0 21 0;
#X connect 2 0 26 0;
#X connect 3 0 25 0;
#X connect 5 0 28 0;
#X connect 6 0 27 0;
#X connect 7 0 14 0;
#X connect 7 1 8 1;
#X connect 8 0 6 0;
#X connect 9 0 8 0;
#X connect 10 0 28 0;
#X connect 11 0 28 0;
#X connect 14 0 9 0;
#X connect 14 1 5 0;
#X connect 14 2 13 1;
#X connect 15 0 19 0;
#X connect 16 0 15 0;
#X connect 16 1 17 1;
#X connect 17 0 18 0;
#X connect 18 0 27 0;
#X connect 19 0 20 0;
#X connect 19 1 18 1;
#X connect 20 0 17 0;
#X connect 23 0 27 0;
#X connect 24 0 23 0;
#X connect 25 0 11 0;
#X connect 25 1 13 1;
#X connect 25 2 24 0;
#X connect 26 0 27 0;
#X connect 27 0 29 0;
#X connect 28 0 6 1;
#X connect 28 0 13 0;
#X connect 28 0 22 0;
#X connect 28 1 22 1;
#X connect 28 2 22 2;
#X connect 29 0 30 0;
#X connect 30 0 31 0;
#X connect 30 0 31 1;
#X connect 32 0 33 0;
#X connect 33 0 34 0;
#X connect 33 0 34 1;
